<svg width="177" height="92" viewBox="0 0 177 92" fill="none" xmlns="http://www.w3.org/2000/svg">
<path d="M106.238 33.9505C106.083 33.9716 105.998 33.9857 106.174 33.9787C106.195 33.9646 106.231 33.9787 106.238 33.9505ZM174.452 33.7109C171.43 38.4825 167.824 44.0929 161.21 44.9317C162.598 35.0077 160.506 28.5022 157.393 25.8943C157.393 25.9296 149.004 18.3386 137.799 25.112C137.172 25.4574 136.404 25.9507 135.798 26.4794C128.748 32.1743 122.839 46.6937 125.05 56.66C123.275 59.2396 121.015 61.7982 118.81 61.9462C114.154 62.2563 115.162 52.1773 117.944 40.9635C119.465 41.041 120.669 41.0692 121.388 41.034C124.276 40.893 128.135 33.584 125.177 33.7531C124.374 33.8589 122.381 33.8448 119.895 33.7954C122.663 24.3226 126.057 15.4982 127.741 13.13C131.122 8.04112 117.549 5.9196 114.309 9.40143C113.26 10.501 109.203 21.461 106.238 33.9505C103.371 34.5144 99.1874 41.3512 103.146 41.034C104.273 40.9353 103.456 40.9847 104.667 40.9706C103.695 45.8832 102.991 50.7606 102.765 55.1305C100.941 58.3375 97.6449 63.7294 94.4613 64.11C89.7705 64.6668 90.7918 54.4045 93.595 42.9159C95.1305 42.9159 93.7148 43.0357 94.4403 42.9652C97.3491 42.6551 101.258 35.0007 98.2718 35.3602C97.4618 35.5152 98.0746 35.487 95.5672 35.5645C98.3633 25.8309 101.793 16.7034 103.491 14.2083C106.907 8.86577 93.2077 7.47726 89.9537 11.1635C88.8972 12.3335 84.8051 23.646 81.8258 36.4385C81.1778 36.5231 80.6917 36.502 80.2903 36.5513C76.8954 36.9813 72.7329 44.544 76.6982 43.9872C77.8322 43.8321 79.0437 43.67 80.2551 43.5925C79.3888 48.0329 78.7337 52.431 78.4379 56.4626C76.9729 59.007 73.0358 66.9786 69.1479 67.62C61.4707 68.8887 70.0213 40.4842 74.0148 33.9928C77.4308 28.3542 63.7175 27.8608 60.4776 31.7867C59.2591 33.2316 55.5825 44.0577 53.7513 54.9473C52.1877 61.5938 48.8351 71.2851 45.2219 72.0322C37.6081 73.6251 46.1023 44.5934 50.0747 37.8623C53.4696 32.0193 39.8408 32.1109 36.6432 36.1989C35.2134 37.8975 30.3324 53.5376 29.1985 66.2385C20.8452 84.4019 11.4987 86.5939 18.5491 56.3217C20.0915 49.8655 23.1342 38.1936 25.3457 32.2378C37.9532 26.1974 50.448 19.6496 65.5347 17.4083C71.7187 16.499 75.5783 17.0911 76.9377 20.7068C77.7054 22.4618 80.1917 22.5887 81.4032 20.7773C82.354 19.3395 83.0513 17.4999 83.0654 15.3008C83.1217 4.74254 74.7191 -0.212383 65.2811 1.11974C53.209 2.81132 40.9748 11.8331 28.6561 20.2135C29.4661 14.2718 28.8252 8.90806 27.2334 4.4888C26.4938 2.6915 24.3245 1.04221 21.3734 1.76113C16.9784 2.6915 15.0696 6.78653 14.9851 10.8957C14.9076 14.8709 15.4077 18.6276 14.5766 22.483C11.9425 21.6936 9.62523 20.4038 7.89259 18.7404C6.6248 17.3307 6.15284 16.64 6.15284 16.64C6.08945 16.5413 4.53289 14.6383 2.01844 15.7731C-0.496006 16.9008 0.22953 18.8813 0.25066 18.8884C2.51155 24.2028 6.76566 28.1991 12.2876 30.0246C9.14628 40.4419 -6.60951 95.8624 11.1395 91.6827C19.0702 89.4766 25.5923 79.3483 29.0153 73.167C29.3675 79.8417 31.6002 84.416 37.3123 83.0627C44.3486 81.4839 49.6028 76.3176 53.0117 70.5662C53.7865 75.8594 56.1812 79.1369 61.1819 78.2276C68.8661 76.8109 75.036 68.1134 78.3041 62.6792C78.5999 70.0728 80.8467 75.0489 86.4884 74.2383C93.5457 73.2657 99.3635 66.1046 102.787 60.9101C103.92 79.6232 119.909 70.0517 126.128 60.5365C128.318 66.2033 132.798 69.9248 138.876 69.7556C147.687 69.5512 156.322 62.6651 159.943 50.9015C168.669 49.5624 174.973 38.6376 176.199 36.8191C177.579 34.7822 175.452 32.3365 174.445 33.725L174.452 33.7109ZM141.208 61.4457C136.453 61.5092 136.721 52.5931 138.658 45.1784C139.904 40.3292 141.51 36.8473 143.046 34.4298C144.081 32.9074 145.377 31.4977 146.934 30.6872C144.553 36.2835 144.969 44.255 149.068 48.2866C147.631 54.7922 143.976 61.4105 141.208 61.4457Z" fill="#EAE1CC"/>
</svg>
